<?xml version="1.0" encoding="utf-8"?>
<!-- Generator: Adobe Illustrator 27.5.0, SVG Export Plug-In . SVG Version: 6.00 Build 0)  -->
<svg version="1.1" id="Capa_1" xmlns="http://www.w3.org/2000/svg" xmlns:xlink="http://www.w3.org/1999/xlink" x="0px" y="0px"
	 viewBox="0 0 425.2 425.2" style="enable-background:new 0 0 425.2 425.2;" xml:space="preserve">
<rect x="0.002" y="0.002" style="fill:#FFFFFF;" width="425.197" height="425.196"/>
<g>
	<g>
		<g>
			<path style="fill:#8A9E3D;" d="M203.223,104.994c2.389-3.246,3.408-7.465,2.441-11.7c-1.264-5.506-5.534-9.521-10.68-10.751
				c1.174-2.706,1.542-5.791,0.831-8.887c-1.77-7.727-9.469-12.554-17.197-10.789c-2.129,0.491-4.03,1.441-5.64,2.706
				c-0.059-0.453-0.135-0.905-0.239-1.357c-1.77-7.729-9.469-12.56-17.193-10.791c-3.343,0.767-6.13,2.639-8.087,5.136
				c-2.131-7.213-9.52-11.623-16.95-9.922c-5.347,1.225-9.304,5.284-10.649,10.229c-3.362-3.865-8.691-5.802-14.039-4.578
				c-5.455,1.249-9.453,5.46-10.715,10.543c-3.351-4.027-8.783-6.078-14.24-4.829c-6.51,1.49-10.948,7.193-11.131,13.571
				c-3.357-3.006-8.062-4.401-12.786-3.319c-7.728,1.768-12.56,9.467-10.79,17.195c0.27,1.179,0.692,2.277,1.216,3.308
				c-2.938-1.558-6.419-2.115-9.913-1.317c-7.732,1.772-12.563,9.467-10.795,17.2c0.605,2.619,1.901,4.9,3.639,6.709
				c-3.797,3.368-5.685,8.653-4.476,13.949c0.828,3.609,2.95,6.571,5.763,8.538c-4.139,3.338-6.263,8.841-4.997,14.37
				c1.655,7.229,8.501,11.919,15.706,11.048c-1.31,2.798-1.747,6.032-1.004,9.275c1.767,7.724,9.468,12.557,17.199,10.786
				c3.3-0.757,6.07-2.6,8.025-5.064c0.034,0.204,0.059,0.404,0.106,0.609c1.769,7.73,9.47,12.558,17.197,10.788
				c5.009-1.146,8.792-4.797,10.358-9.329c3.203,4.846,9.165,7.454,15.16,6.083c5.456-1.249,9.456-5.462,10.723-10.547
				c3.348,4.03,8.78,6.079,14.234,4.831c5.461-1.248,9.463-5.462,10.724-10.552c3.374,3.719,8.593,5.563,13.839,4.362
				c6.797-1.555,11.354-7.709,11.137-14.425c2.916,1.499,6.345,2.024,9.788,1.237c3.186-0.73,5.867-2.479,7.813-4.811
				c3.352,2.983,8.038,4.365,12.749,3.288c7.729-1.768,12.56-9.47,10.789-17.197c-1.069-4.664-4.299-8.257-8.392-9.996
				c5.905-2.839,9.287-9.469,7.766-16.124C209.541,110.236,206.782,106.881,203.223,104.994z"/>
			<path style="fill:#B2C84E;" d="M197.492,105.815c2.229-3.035,3.186-6.979,2.28-10.94c-1.177-5.145-5.172-8.902-9.981-10.047
				c1.097-2.528,1.432-5.416,0.774-8.309c-1.657-7.225-8.85-11.741-16.074-10.086c-1.994,0.456-3.77,1.343-5.273,2.525
				c-0.06-0.421-0.128-0.846-0.224-1.269c-1.654-7.224-8.854-11.741-16.08-10.085c-3.115,0.715-5.725,2.465-7.557,4.801
				c-1.991-6.743-8.9-10.87-15.85-9.279c-4.994,1.145-8.693,4.944-9.95,9.565c-3.148-3.613-8.13-5.423-13.127-4.281
				c-5.104,1.17-8.839,5.104-10.019,9.856c-3.135-3.762-8.214-5.683-13.312-4.513c-6.089,1.392-10.237,6.724-10.408,12.688
				c-3.137-2.811-7.54-4.115-11.956-3.104c-7.224,1.654-11.744,8.854-10.087,16.076c0.253,1.101,0.646,2.128,1.134,3.092
				c-2.743-1.456-5.996-1.979-9.269-1.23c-7.222,1.653-11.737,8.854-10.082,16.077c0.565,2.451,1.774,4.582,3.394,6.275
				c-3.546,3.148-5.312,8.088-4.179,13.041c0.773,3.37,2.762,6.14,5.383,7.981c-3.866,3.119-5.853,8.264-4.666,13.434
				c1.547,6.761,7.946,11.147,14.677,10.328c-1.221,2.618-1.626,5.641-0.932,8.674c1.652,7.225,8.85,11.74,16.072,10.083
				c3.094-0.707,5.678-2.429,7.508-4.732c0.036,0.189,0.057,0.381,0.1,0.566c1.652,7.228,8.853,11.741,16.078,10.086
				c4.688-1.072,8.218-4.484,9.678-8.719c2.996,4.526,8.578,6.967,14.183,5.681c5.096-1.163,8.837-5.101,10.021-9.855
				c3.127,3.767,8.21,5.68,13.307,4.515c5.104-1.166,8.842-5.104,10.022-9.863c3.156,3.477,8.041,5.201,12.941,4.078
				c6.359-1.457,10.611-7.207,10.415-13.488c2.718,1.403,5.927,1.896,9.142,1.161c2.984-0.685,5.491-2.318,7.307-4.505
				c3.137,2.794,7.518,4.085,11.923,3.077c7.228-1.656,11.738-8.851,10.087-16.074c-1.002-4.359-4.02-7.723-7.846-9.346
				c5.526-2.658,8.686-8.853,7.26-15.078C203.4,110.715,200.822,107.578,197.492,105.815z"/>
			<path style="fill:#93A841;" d="M179.535,116.22c1.694-2.309,2.424-5.309,1.732-8.321c-0.895-3.912-3.935-6.771-7.591-7.646
				c0.829-1.922,1.089-4.116,0.588-6.317c-1.259-5.498-6.735-8.934-12.23-7.675c-1.517,0.35-2.864,1.022-4.01,1.923
				c-0.042-0.32-0.096-0.642-0.17-0.968c-1.261-5.492-6.734-8.931-12.233-7.671c-2.366,0.545-4.357,1.877-5.749,3.65
				c-1.515-5.126-6.771-8.265-12.056-7.054c-3.801,0.867-6.614,3.758-7.57,7.272c-2.395-2.747-6.186-4.125-9.984-3.255
				c-3.879,0.89-6.729,3.885-7.624,7.499c-2.387-2.863-6.247-4.324-10.128-3.433c-4.629,1.058-7.782,5.113-7.916,9.648
				c-2.385-2.138-5.733-3.128-9.094-2.358c-5.496,1.258-8.933,6.734-7.674,12.228c0.194,0.841,0.492,1.619,0.864,2.354
				c-2.085-1.107-4.563-1.506-7.052-0.938c-5.492,1.261-8.928,6.736-7.67,12.231c0.427,1.867,1.346,3.485,2.584,4.773
				c-2.7,2.397-4.047,6.154-3.184,9.921c0.588,2.566,2.1,4.674,4.102,6.07c-2.947,2.377-4.459,6.287-3.559,10.224
				c1.181,5.14,6.047,8.48,11.172,7.858c-0.935,1.99-1.241,4.288-0.711,6.595c1.256,5.494,6.734,8.927,12.228,7.67
				c2.351-0.537,4.317-1.848,5.708-3.6c0.028,0.143,0.043,0.287,0.078,0.433c1.258,5.495,6.734,8.931,12.227,7.674
				c3.57-0.818,6.257-3.415,7.363-6.635c2.282,3.444,6.525,5.301,10.788,4.324c3.88-0.888,6.727-3.886,7.625-7.501
				c2.381,2.864,6.246,4.326,10.127,3.438c3.883-0.89,6.729-3.887,7.622-7.507c2.401,2.647,6.116,3.958,9.843,3.105
				c4.84-1.107,8.075-5.484,7.926-10.263c2.068,1.068,4.511,1.442,6.954,0.885c2.268-0.52,4.174-1.767,5.558-3.426
				c2.386,2.124,5.721,3.107,9.073,2.337c5.49-1.257,8.928-6.732,7.667-12.228c-0.757-3.315-3.057-5.873-5.963-7.11
				c4.196-2.022,6.603-6.734,5.519-11.469C184.027,119.947,182.068,117.56,179.535,116.22z"/>
			<path style="fill:#748732;" d="M136.079,106.854c0.713-1.409,0.841-3.105,0.196-4.685c-0.842-2.046-2.752-3.329-4.816-3.475
				c0.28-1.121,0.225-2.338-0.249-3.489c-1.176-2.879-4.462-4.255-7.339-3.076c-0.793,0.324-1.469,0.813-2.011,1.402
				c-0.052-0.169-0.112-0.338-0.181-0.508c-1.177-2.875-4.464-4.254-7.34-3.075c-1.24,0.507-2.201,1.412-2.799,2.502
				c-1.282-2.654-4.422-3.889-7.194-2.756c-1.985,0.813-3.259,2.638-3.463,4.637c-1.55-1.278-3.735-1.688-5.723-0.876
				c-2.032,0.832-3.307,2.717-3.473,4.765c-1.556-1.345-3.785-1.793-5.818-0.958c-2.421,0.99-3.774,3.479-3.438,5.958
				c-1.487-0.948-3.398-1.187-5.158-0.469c-2.879,1.179-4.253,4.465-3.077,7.34c0.181,0.439,0.416,0.839,0.681,1.203
				c-1.235-0.415-2.619-0.409-3.917,0.127c-2.878,1.172-4.255,4.464-3.074,7.337c0.399,0.979,1.043,1.776,1.829,2.369
				c-1.249,1.543-1.645,3.705-0.834,5.68c0.545,1.339,1.558,2.353,2.768,2.934c-1.383,1.555-1.854,3.819-1.014,5.877
				c1.102,2.692,4.051,4.071,6.779,3.275c-0.323,1.163-0.283,2.44,0.209,3.652c1.178,2.875,4.463,4.25,7.337,3.072
				c1.232-0.499,2.183-1.395,2.782-2.47c0.028,0.077,0.05,0.154,0.082,0.229c1.18,2.877,4.465,4.253,7.342,3.076
				c1.865-0.764,3.096-2.42,3.411-4.268c1.548,1.669,4.022,2.294,6.253,1.38c2.028-0.829,3.309-2.714,3.475-4.764
				c1.551,1.346,3.781,1.795,5.816,0.962c2.029-0.829,3.313-2.717,3.475-4.764c1.542,1.223,3.68,1.6,5.629,0.803
				c2.536-1.038,3.902-3.707,3.389-6.292c1.223,0.395,2.586,0.377,3.864-0.148c1.185-0.485,2.114-1.332,2.718-2.358
				c1.484,0.94,3.387,1.173,5.139,0.458c2.877-1.181,4.254-4.465,3.079-7.343c-0.715-1.732-2.191-2.915-3.882-3.33
				c2.102-1.476,2.982-4.254,1.97-6.733C138.855,108.475,137.573,107.355,136.079,106.854z"/>
			<path style="fill:#67792B;" d="M89.037,114.232c-0.01-1.365-0.587-2.722-1.707-3.677c-1.459-1.243-3.439-1.467-5.088-0.758
				c-0.23-0.972-0.755-1.887-1.573-2.583c-2.049-1.745-5.12-1.496-6.866,0.551c-0.48,0.563-0.805,1.21-0.985,1.879
				c-0.106-0.111-0.22-0.219-0.343-0.321c-2.043-1.742-5.121-1.494-6.863,0.555c-0.75,0.884-1.131,1.959-1.156,3.034
				c-2.041-1.527-4.945-1.229-6.62,0.74c-1.208,1.416-1.464,3.323-0.825,4.941c-1.698-0.366-3.541,0.186-4.746,1.602
				c-1.226,1.446-1.465,3.403-0.775,5.04c-1.729-0.415-3.619,0.128-4.854,1.572c-1.464,1.729-1.517,4.181-0.274,5.948
				c-1.521-0.136-3.086,0.439-4.149,1.692c-1.742,2.049-1.498,5.123,0.553,6.864c0.313,0.264,0.652,0.479,1.003,0.653
				c-1.117,0.172-2.176,0.726-2.968,1.654c-1.741,2.048-1.493,5.119,0.554,6.862c0.696,0.591,1.51,0.945,2.352,1.089
				c-0.351,1.684,0.206,3.506,1.611,4.7c0.957,0.816,2.132,1.191,3.296,1.154c-0.447,1.748,0.092,3.675,1.558,4.922
				c1.915,1.63,4.729,1.518,6.511-0.18c0.214,1.024,0.749,1.995,1.607,2.726c2.049,1.738,5.122,1.491,6.867-0.555
				c0.744-0.876,1.12-1.936,1.157-3.005c0.047,0.049,0.096,0.098,0.151,0.146c2.048,1.741,5.119,1.492,6.859-0.553
				c1.134-1.331,1.425-3.091,0.931-4.638c1.853,0.666,4.004,0.166,5.356-1.423c1.227-1.445,1.463-3.4,0.774-5.042
				c1.73,0.417,3.622-0.128,4.853-1.573c1.23-1.448,1.467-3.404,0.777-5.046c1.671,0.331,3.467-0.227,4.647-1.618
				c1.536-1.802,1.528-4.399,0.106-6.184c1.094-0.18,2.133-0.734,2.911-1.645c0.716-0.844,1.094-1.866,1.146-2.896
				c1.518,0.134,3.072-0.439,4.137-1.69c1.742-2.048,1.497-5.121-0.555-6.862c-1.233-1.054-2.84-1.377-4.309-1.019
				c1.033-1.97,0.604-4.455-1.156-5.959C91.82,114.375,90.389,114.023,89.037,114.232z"/>
			<path style="fill:#6D7F2F;" d="M188.968,125.698c1.273-0.938,2.147-2.396,2.278-4.097c0.176-2.206-0.953-4.21-2.735-5.27
				c0.755-0.876,1.254-1.988,1.353-3.231c0.239-3.097-2.078-5.805-5.181-6.044c-0.851-0.069-1.676,0.063-2.423,0.35
				c0.026-0.173,0.054-0.354,0.069-0.535c0.239-3.1-2.073-5.808-5.177-6.049c-1.338-0.104-2.601,0.272-3.624,0.978
				c0.046-2.95-2.202-5.463-5.185-5.694c-2.144-0.169-4.101,0.892-5.181,2.586c-0.81-1.842-2.573-3.191-4.72-3.358
				c-2.186-0.168-4.176,0.939-5.244,2.693c-0.781-1.898-2.575-3.301-4.76-3.474c-2.613-0.201-4.938,1.414-5.754,3.779
				c-0.905-1.517-2.503-2.59-4.393-2.735c-3.102-0.243-5.814,2.074-6.051,5.176c-0.041,0.471-0.008,0.933,0.066,1.379
				c-0.921-0.928-2.155-1.544-3.558-1.652c-3.099-0.24-5.805,2.075-6.045,5.175c-0.082,1.051,0.133,2.056,0.569,2.936
				c-1.811,0.819-3.137,2.573-3.299,4.696c-0.114,1.448,0.334,2.803,1.155,3.87c-1.939,0.767-3.38,2.575-3.548,4.793
				c-0.232,2.9,1.785,5.457,4.584,5.97c-0.819,0.895-1.358,2.054-1.458,3.354c-0.243,3.101,2.068,5.809,5.171,6.047
				c1.326,0.108,2.58-0.263,3.597-0.953c-0.006,0.075-0.02,0.156-0.029,0.239c-0.242,3.099,2.077,5.805,5.176,6.048
				c2.009,0.153,3.852-0.771,4.963-2.279c0.635,2.185,2.564,3.858,4.968,4.044c2.188,0.172,4.175-0.937,5.243-2.69
				c0.779,1.899,2.576,3.301,4.764,3.47c2.189,0.171,4.181-0.936,5.245-2.692c0.831,1.783,2.564,3.087,4.674,3.251
				c2.724,0.209,5.146-1.561,5.854-4.099c0.913,0.9,2.137,1.499,3.514,1.606c1.277,0.101,2.485-0.241,3.488-0.886
				c0.907,1.506,2.498,2.573,4.383,2.723c3.104,0.236,5.81-2.077,6.051-5.179c0.15-1.871-0.643-3.593-1.97-4.722
				c2.542-0.372,4.579-2.457,4.789-5.129C190.722,128.395,190.082,126.82,188.968,125.698z"/>
			<g>
				<g>
					<path style="fill:#E1E78D;" d="M79.364,122.742L97.72,139.12l4.987-21.724l5.045-1.154l-1.451,25.563l19.46,24.093
						l-8.81-38.483l5.045-1.154l21.956,95.893c-24.314,6.895-25.836-11.35-25.836-11.35c-11.173-45.906-35.366-52.984-35.366-52.984
						L59.33,151.23l1.273-8.921l33.094,9.684l-19.289-24.798L79.364,122.742z"/>
					<path style="fill:#D1D3D4;" d="M116.532,194.148c-1.549-5.024-2.118-10.381-2.03-15.629c0.076-4.463,0.814-9.277-0.073-13.687
						c-1.741-8.673-7.011-12.899-14.136-17.637c-6.721-4.458-14.129-8.74-19.149-15.19c-1.779-2.281-3.121-4.711-4.039-7.233
						l-2.696,2.423l19.289,24.798l-33.094-9.684l-1.273,8.921l23.419,6.588c0,0,24.193,7.078,35.366,52.984
						c0,0,1.141,13.521,16.992,12.867C126.313,214.65,119.547,203.953,116.532,194.148z"/>
				</g>
				<g>
					<path style="fill:#E1E78D;" d="M154.259,105.594l-9.403,22.735l-13.938-17.392l-5.048,1.155l12.427,22.384l-7.036,30.163
						l-8.81-38.484l-5.05,1.155l21.954,95.893c24.894-4.37,18.327-21.459,18.327-21.459c-9.913-46.197,8.795-63.096,8.795-63.096
						l18.216-16.121l-5.032-7.478l-25.579,23.117l6.575-30.72L154.259,105.594z"/>
					<path style="fill:#D1D3D4;" d="M151.863,186.061c-0.799-5.196-2.615-10.27-4.977-14.957c-2.008-3.987-4.768-7.997-5.891-12.354
						c-2.201-8.566,0.703-14.665,5.062-22.031c4.108-6.937,8.917-14.014,10.631-22.01c0.608-2.828,0.758-5.597,0.49-8.269
						l3.478,1.008l-6.575,30.72l25.579-23.117l5.032,7.478l-18.216,16.121c0,0-18.708,16.898-8.795,63.096
						c0,0,4.852,12.672-9.699,18.979C151.974,208.774,153.411,196.2,151.863,186.061z"/>
				</g>
			</g>
			<path style="fill:#BFC579;" d="M139.928,223.139c0,0-25.356-22.708-19.288-49.344c0,0,7.676-12.962,21.196-4.854
				c0,0,12.124,9.156,2.807,53.119"/>
			<path style="fill:#E1E78D;" d="M140.768,222.947c0,0-17.921-21.188-15.298-44.183c0,0,4.391-10.947,13.745-3.146
				c0,0,8.482,8.64,4.604,46.631"/>
		</g>
		<g>
			<path style="fill:#D7182D;" d="M305.59,230.119c0,51.984-44.104,94.125-98.512,94.125c-54.406,0-98.513-42.141-98.513-94.125
				c0-51.986,44.107-94.127,98.513-94.127C261.486,135.992,305.59,178.132,305.59,230.119z"/>
			<path style="fill:#D93A31;" d="M296.457,230.117c0,47.163-40.016,85.396-89.379,85.396c-49.359,0-89.374-38.233-89.374-85.396
				c0-47.161,40.015-85.393,89.374-85.393C256.441,144.724,296.457,182.956,296.457,230.117z"/>
			<path style="fill:#F15848;" d="M287.428,230.119c0,42.399-35.974,76.771-80.35,76.771c-44.377,0-80.352-34.372-80.352-76.771
				c0-42.4,35.976-76.773,80.352-76.773C251.454,153.345,287.428,187.718,287.428,230.119z"/>
			<g>
				<g>
					<g>
						<path style="fill:#D7182D;" d="M251.959,181.738c-14.8-11.636-32.618-20.455-52.879-18.727
							c-16.559,1.414-31.229,8.663-42.178,19.566c0,0-6.923,7.079,4.913,13.459l38.358,26.936l10.961-0.754l38.75-25.884
							C249.885,196.335,262.414,189.956,251.959,181.738z"/>
						<path style="fill:#D1D3D4;" d="M192.911,194.074c-4.386-9.898-4.528-21.195,0.838-30.384
							c-14.369,2.368-27.085,9.171-36.847,18.887c0,0-6.923,7.079,4.913,13.459l38.358,26.936l10.961-0.754l8.234-5.503
							C208.148,213.944,198.308,206.253,192.911,194.074z"/>
						<path style="opacity:0.3;fill:#FFFFFF;" d="M215.08,169.724c0,0,20.363,5.429,29.319,14.765c0,0,6.319,7.314-7.948,13.627
							l-13.011,10.184C223.44,208.299,237.54,191.666,215.08,169.724z"/>
					</g>
					<g>
						<g>
							<path style="fill:#FEC55C;" d="M208.738,172.352c0,3.355-3.23,6.076-3.23,6.076s-3.232-2.721-3.232-6.076
								c0-3.354,1.448-6.074,3.232-6.074C207.293,166.278,208.738,168.998,208.738,172.352z"/>
							<path style="fill:#D1D3D4;" d="M204.764,175.044v-0.077c0-2.378,1.531-4.448,3.641-5.276
								c-0.522-2.02-1.623-3.413-2.896-3.413c-1.784,0-3.232,2.72-3.232,6.074c0,3.355,3.232,6.076,3.232,6.076
								s0.094-0.081,0.244-0.223C205.129,177.298,204.764,176.208,204.764,175.044z"/>
							<path style="fill:#FFFFFF;" d="M207.99,173.926c-0.247,1.023-0.861,1.753-1.381,1.632c-0.517-0.126-0.736-1.056-0.496-2.081
								c0.246-1.025,0.867-1.755,1.386-1.631C208.013,171.971,208.237,172.902,207.99,173.926z"/>
						</g>
						<g>
							<path style="fill:#FEC55C;" d="M173.674,183.762c2.37,2.374,2.009,6.58,2.009,6.58s-4.204,0.361-6.578-2.011
								c-2.371-2.372-3.27-5.319-2.013-6.58C168.356,180.49,171.3,181.391,173.674,183.762z"/>
							<path style="fill:#D1D3D4;" d="M172.766,188.476l-0.055-0.053c-1.679-1.682-2.064-4.229-1.154-6.31
								c-1.798-1.057-3.564-1.264-4.465-0.362c-1.257,1.261-0.358,4.208,2.013,6.58c2.374,2.372,6.578,2.011,6.578,2.011
								s0.014-0.122,0.017-0.327C174.618,189.812,173.588,189.3,172.766,188.476z"/>
							<path style="fill:#FFFFFF;" d="M174.26,185.404c0.548,0.898,0.628,1.849,0.177,2.131c-0.456,0.276-1.27-0.224-1.821-1.124
								c-0.553-0.895-0.631-1.85-0.177-2.129C172.895,184.004,173.707,184.504,174.26,185.404z"/>
						</g>
						<g>
							<path style="fill:#FEC55C;" d="M191.381,173.723c1.148,3.152-0.956,6.813-0.956,6.813s-3.964-1.447-5.114-4.603
								c-1.147-3.151-0.721-6.202,0.954-6.813C187.941,168.51,190.23,170.571,191.381,173.723z"/>
							<path style="fill:#D1D3D4;" d="M188.566,177.612l-0.023-0.072c-0.814-2.233-0.086-4.702,1.614-6.205
								c-1.185-1.718-2.694-2.649-3.893-2.214c-1.675,0.611-2.102,3.662-0.954,6.813c1.15,3.155,5.114,4.603,5.114,4.603
								s0.061-0.107,0.153-0.29C189.684,179.604,188.966,178.705,188.566,177.612z"/>
							<path style="fill:#FFFFFF;" d="M191.217,175.456c0.121,1.047-0.209,1.944-0.737,2.008c-0.529,0.059-1.055-0.74-1.177-1.786
								c-0.121-1.046,0.209-1.945,0.739-2.005C190.574,173.611,191.097,174.411,191.217,175.456z"/>
						</g>
						<g>
							<path style="fill:#FEC55C;" d="M227.605,178.895c-1.265,3.107-5.28,4.412-5.28,4.412s-1.967-3.736-0.703-6.845
								c1.264-3.108,3.628-5.084,5.279-4.412C228.555,172.721,228.868,175.787,227.605,178.895z"/>
							<path style="fill:#D1D3D4;" d="M222.91,179.89l0.028-0.067c0.893-2.205,3.096-3.548,5.365-3.519
								c0.27-2.07-0.222-3.772-1.403-4.254c-1.651-0.672-4.016,1.304-5.279,4.412c-1.264,3.108,0.703,6.845,0.703,6.845
								s0.118-0.041,0.306-0.113C222.398,182.118,222.471,180.969,222.91,179.89z"/>
							<path style="fill:#FFFFFF;" d="M226.322,180.072c-0.611,0.857-1.463,1.3-1.895,0.99c-0.432-0.31-0.287-1.256,0.326-2.114
								c0.609-0.855,1.459-1.3,1.893-0.989C227.079,178.269,226.936,179.214,226.322,180.072z"/>
						</g>
						<g>
							<path style="fill:#FEC55C;" d="M241.281,190.129c-2.529,2.209-6.701,1.568-6.701,1.568s-0.08-4.222,2.447-6.431
								c2.525-2.209,5.523-2.911,6.7-1.567C244.901,185.042,243.809,187.921,241.281,190.129z"/>
							<path style="fill:#D1D3D4;" d="M236.639,188.91l0.057-0.051c1.789-1.565,4.355-1.774,6.369-0.73
								c1.176-1.725,1.501-3.469,0.663-4.43c-1.177-1.344-4.175-0.642-6.7,1.567c-2.527,2.209-2.447,6.431-2.447,6.431
								s0.126,0.018,0.325,0.037C235.182,190.669,235.761,189.674,236.639,188.91z"/>
							<path style="fill:#FFFFFF;" d="M239.602,190.604c-0.932,0.488-1.887,0.506-2.134,0.034c-0.249-0.472,0.304-1.251,1.242-1.741
								c0.926-0.49,1.888-0.506,2.134-0.034C241.092,189.335,240.537,190.114,239.602,190.604z"/>
						</g>
					</g>
				</g>
				<g>
					<g>
						<path style="fill:#D7182D;" d="M159.058,278.498c14.794,11.636,32.615,20.455,52.876,18.727
							c16.562-1.414,31.225-8.664,42.175-19.566c0,0,6.923-7.08-4.909-13.46l-38.361-26.936l-10.956,0.753l-38.749,25.886
							C161.133,263.902,148.601,270.28,159.058,278.498z"/>
						<path style="fill:#D1D3D4;" d="M218.104,266.163c4.384,9.897,4.526,21.192-0.84,30.385
							c14.369-2.369,27.087-9.172,36.845-18.889c0,0,6.923-7.08-4.909-13.46l-38.361-26.936l-10.956,0.753l-8.236,5.503
							C202.863,246.291,212.705,253.983,218.104,266.163z"/>
						<path style="opacity:0.3;fill:#FFFFFF;" d="M195.933,290.511c0,0-20.359-5.429-29.319-14.763c0,0-6.318-7.316,7.947-13.63
							l13.014-10.182C187.574,251.937,173.473,268.57,195.933,290.511z"/>
					</g>
					<g>
						<g>
							<path style="fill:#FEC55C;" d="M202.275,287.883c0-3.355,3.232-6.076,3.232-6.076s3.23,2.721,3.23,6.076
								c0,3.354-1.449,6.075-3.23,6.075C203.724,293.958,202.275,291.237,202.275,287.883z"/>
							<path style="fill:#D1D3D4;" d="M206.25,285.192v0.076c0,2.379-1.529,4.447-3.642,5.276c0.524,2.021,1.623,3.414,2.899,3.414
								c1.781,0,3.23-2.722,3.23-6.075c0-3.355-3.23-6.076-3.23-6.076s-0.096,0.081-0.244,0.223
								C205.887,282.938,206.25,284.028,206.25,285.192z"/>
							<path style="fill:#FFFFFF;" d="M203.024,286.309c0.245-1.022,0.863-1.753,1.382-1.63c0.516,0.125,0.737,1.055,0.493,2.079
								c-0.247,1.025-0.863,1.756-1.382,1.631C203,288.266,202.777,287.335,203.024,286.309z"/>
						</g>
						<g>
							<path style="fill:#FEC55C;" d="M237.34,276.472c-2.371-2.373-2.009-6.58-2.009-6.58s4.207-0.361,6.579,2.012
								c2.373,2.373,3.271,5.319,2.014,6.579C242.66,279.747,239.714,278.844,237.34,276.472z"/>
							<path style="fill:#D1D3D4;" d="M238.249,271.759l0.054,0.053c1.683,1.682,2.063,4.228,1.157,6.31
								c1.796,1.057,3.561,1.264,4.464,0.361c1.258-1.26,0.359-4.206-2.014-6.579c-2.372-2.373-6.579-2.012-6.579-2.012
								s-0.012,0.124-0.017,0.328C236.396,270.424,237.428,270.935,238.249,271.759z"/>
							<path style="fill:#FFFFFF;" d="M236.755,274.833c-0.55-0.898-0.63-1.853-0.175-2.131c0.455-0.279,1.269,0.222,1.822,1.123
								c0.547,0.896,0.628,1.85,0.174,2.128C238.124,276.231,237.307,275.73,236.755,274.833z"/>
						</g>
						<g>
							<path style="fill:#FEC55C;" d="M219.635,286.513c-1.152-3.153,0.953-6.813,0.953-6.813s3.966,1.448,5.115,4.602
								c1.146,3.151,0.72,6.204-0.953,6.815C223.071,291.726,220.782,289.665,219.635,286.513z"/>
							<path style="fill:#D1D3D4;" d="M222.446,282.625l0.024,0.071c0.816,2.233,0.088,4.702-1.613,6.206
								c1.183,1.716,2.691,2.649,3.893,2.215c1.673-0.611,2.1-3.664,0.953-6.815c-1.149-3.153-5.115-4.602-5.115-4.602
								s-0.06,0.106-0.151,0.288C221.329,280.631,222.047,281.53,222.446,282.625z"/>
							<path style="fill:#FFFFFF;" d="M219.794,284.78c-0.118-1.047,0.212-1.945,0.742-2.007c0.526-0.061,1.056,0.739,1.174,1.787
								c0.122,1.044-0.209,1.945-0.739,2.003C220.444,286.625,219.918,285.826,219.794,284.78z"/>
						</g>
						<g>
							<path style="fill:#FEC55C;" d="M183.408,281.342c1.268-3.111,5.281-4.413,5.281-4.413s1.967,3.735,0.705,6.845
								c-1.263,3.107-3.629,5.083-5.28,4.411C182.458,287.512,182.145,284.449,183.408,281.342z"/>
							<path style="fill:#D1D3D4;" d="M188.105,280.344l-0.03,0.069c-0.894,2.205-3.089,3.546-5.361,3.518
								c-0.275,2.068,0.219,3.771,1.401,4.254c1.651,0.672,4.018-1.304,5.28-4.411c1.262-3.109-0.705-6.845-0.705-6.845
								s-0.12,0.04-0.307,0.111C188.615,278.117,188.543,279.265,188.105,280.344z"/>
							<path style="fill:#FFFFFF;" d="M184.694,280.165c0.61-0.857,1.458-1.301,1.892-0.99c0.435,0.308,0.289,1.256-0.326,2.112
								c-0.61,0.858-1.459,1.3-1.891,0.99C183.936,281.966,184.081,281.02,184.694,280.165z"/>
						</g>
						<g>
							<path style="fill:#FEC55C;" d="M169.735,270.106c2.526-2.208,6.698-1.567,6.698-1.567s0.082,4.222-2.447,6.43
								c-2.524,2.21-5.524,2.91-6.697,1.569C166.111,275.192,167.211,272.317,169.735,270.106z"/>
							<path style="fill:#D1D3D4;" d="M174.376,271.327l-0.059,0.05c-1.788,1.565-4.354,1.776-6.369,0.73
								c-1.175,1.725-1.501,3.469-0.659,4.431c1.173,1.341,4.173,0.641,6.697-1.569c2.529-2.208,2.447-6.43,2.447-6.43
								s-0.121-0.017-0.324-0.038C175.834,269.567,175.252,270.56,174.376,271.327z"/>
							<path style="fill:#FFFFFF;" d="M171.41,269.631c0.932-0.489,1.89-0.506,2.136-0.034c0.247,0.471-0.306,1.251-1.241,1.742
								c-0.931,0.489-1.889,0.506-2.137,0.033C169.924,270.901,170.477,270.122,171.41,269.631z"/>
						</g>
					</g>
				</g>
				<g>
					<g>
						<path style="fill:#D7182D;" d="M265.058,264.097c8.247-10.494,14.5-23.128,13.276-37.496
							c-1.003-11.741-6.143-22.142-13.874-29.904c0,0-5.022-4.909-9.544,3.482l-19.1,27.201l0.534,7.77l18.355,27.475
							C254.706,262.624,259.228,271.51,265.058,264.097z"/>
						<path style="fill:#D1D3D4;" d="M256.309,222.229c7.018-3.11,15.029-3.212,21.546,0.594
							c-1.683-10.19-6.505-19.208-13.395-26.126c0,0-5.022-4.909-9.544,3.482l-19.1,27.201l0.534,7.77l3.901,5.84
							C242.219,233.032,247.672,226.055,256.309,222.229z"/>
						<path style="opacity:0.3;fill:#FFFFFF;" d="M273.572,237.948c0,0-3.847,14.438-10.468,20.789c0,0-5.188,4.481-9.663-5.636
							l-7.221-9.229C246.221,243.873,258.016,253.873,273.572,237.948z"/>
					</g>
					<g>
						<g>
							<path style="fill:#FEC55C;" d="M271.709,233.45c-2.379,0-4.309-2.291-4.309-2.291s1.93-2.289,4.309-2.289
								c2.381,0,4.306,1.024,4.306,2.289C276.015,232.424,274.09,233.45,271.709,233.45z"/>
							<path style="fill:#D1D3D4;" d="M269.8,230.631h0.057c1.687,0,3.155,1.087,3.741,2.584c1.431-0.372,2.417-1.15,2.417-2.057
								c0-1.265-1.925-2.289-4.306-2.289c-2.379,0-4.309,2.289-4.309,2.289s0.059,0.068,0.156,0.173
								C268.203,230.891,268.977,230.631,269.8,230.631z"/>
							<path style="fill:#FFFFFF;" d="M270.594,232.919c-0.727-0.172-1.242-0.611-1.156-0.978c0.09-0.366,0.75-0.524,1.476-0.35
								c0.725,0.175,1.243,0.611,1.154,0.979C271.98,232.939,271.319,233.093,270.594,232.919z"/>
						</g>
						<g>
							<path style="fill:#FEC55C;" d="M263.622,208.585c-1.686,1.684-4.671,1.429-4.671,1.429s-0.255-2.982,1.43-4.667
								c1.682-1.681,3.769-2.318,4.665-1.426C265.94,204.816,265.301,206.904,263.622,208.585z"/>
							<path style="fill:#D1D3D4;" d="M260.275,207.943l0.037-0.039c1.192-1.191,2.999-1.462,4.475-0.817
								c0.751-1.275,0.898-2.525,0.259-3.166c-0.896-0.893-2.983-0.255-4.665,1.426c-1.685,1.685-1.43,4.667-1.43,4.667
								s0.093,0.006,0.232,0.011C259.328,209.255,259.692,208.527,260.275,207.943z"/>
							<path style="fill:#FFFFFF;" d="M262.456,209.001c-0.638,0.392-1.313,0.446-1.511,0.125c-0.196-0.322,0.156-0.898,0.795-1.291
								c0.634-0.391,1.311-0.447,1.508-0.125C263.448,208.034,263.09,208.61,262.456,209.001z"/>
						</g>
						<g>
							<path style="fill:#FEC55C;" d="M270.738,221.142c-2.234,0.815-4.833-0.677-4.833-0.677s1.027-2.811,3.266-3.626
								c2.233-0.816,4.397-0.512,4.833,0.675C274.434,218.704,272.973,220.327,270.738,221.142z"/>
							<path style="fill:#D1D3D4;" d="M267.982,219.148l0.051-0.018c1.583-0.578,3.333-0.062,4.4,1.146
								c1.215-0.841,1.873-1.911,1.57-2.763c-0.436-1.187-2.6-1.491-4.833-0.675c-2.238,0.814-3.266,3.626-3.266,3.626
								s0.077,0.043,0.204,0.11C266.566,219.941,267.204,219.43,267.982,219.148z"/>
							<path style="fill:#FFFFFF;" d="M269.509,221.028c-0.744,0.086-1.376-0.148-1.423-0.525c-0.044-0.373,0.524-0.749,1.266-0.834
								c0.742-0.087,1.379,0.15,1.424,0.525C270.816,220.569,270.252,220.942,269.509,221.028z"/>
						</g>
						<g>
							<path style="fill:#FEC55C;" d="M267.071,246.828c-2.205-0.895-3.131-3.742-3.131-3.742s2.651-1.398,4.854-0.5
								c2.205,0.896,3.605,2.572,3.131,3.744C271.448,247.503,269.275,247.723,267.071,246.828z"/>
							<path style="fill:#D1D3D4;" d="M266.362,243.5l0.054,0.02c1.561,0.636,2.512,2.193,2.491,3.804
								c1.468,0.193,2.678-0.156,3.019-0.993c0.474-1.172-0.926-2.849-3.131-3.744c-2.203-0.898-4.854,0.5-4.854,0.5
								s0.032,0.083,0.083,0.218C264.787,243.137,265.6,243.187,266.362,243.5z"/>
							<path style="fill:#FFFFFF;" d="M266.239,245.919c-0.608-0.436-0.924-1.036-0.705-1.345c0.22-0.308,0.89-0.203,1.499,0.231
								c0.605,0.434,0.92,1.035,0.701,1.342C267.513,246.457,266.844,246.353,266.239,245.919z"/>
						</g>
						<g>
							<path style="fill:#FEC55C;" d="M259.106,256.525c-1.568-1.792-1.116-4.751-1.116-4.751s2.996-0.057,4.559,1.736
								c1.57,1.79,2.067,3.917,1.115,4.749C262.712,259.092,260.672,258.317,259.106,256.525z"/>
							<path style="fill:#D1D3D4;" d="M259.972,253.234l0.034,0.04c1.113,1.27,1.257,3.089,0.519,4.519
								c1.223,0.832,2.458,1.063,3.14,0.467c0.952-0.832,0.455-2.959-1.115-4.749c-1.563-1.793-4.559-1.736-4.559-1.736
								s-0.012,0.087-0.023,0.231C258.72,252.201,259.425,252.613,259.972,253.234z"/>
							<path style="fill:#FFFFFF;" d="M258.766,255.337c-0.345-0.662-0.355-1.341-0.022-1.516c0.336-0.176,0.888,0.217,1.235,0.88
								c0.349,0.659,0.359,1.339,0.023,1.515C259.669,256.392,259.115,255.999,258.766,255.337z"/>
						</g>
					</g>
				</g>
				<g>
					<g>
						<path style="fill:#D7182D;" d="M149.104,264.097c-8.251-10.494-14.506-23.128-13.276-37.496
							c0.997-11.741,6.142-22.142,13.87-29.904c0,0,5.02-4.909,9.545,3.482l19.099,27.201l-0.536,7.77l-18.352,27.475
							C159.453,262.624,154.93,271.51,149.104,264.097z"/>
						<path style="fill:#D1D3D4;" d="M157.848,222.229c-7.016-3.11-15.027-3.212-21.545,0.594
							c1.681-10.19,6.504-19.208,13.395-26.126c0,0,5.02-4.909,9.545,3.482l19.099,27.201l-0.536,7.77l-3.898,5.84
							C171.939,233.032,166.486,226.055,157.848,222.229z"/>
						<path style="opacity:0.3;fill:#FFFFFF;" d="M140.584,237.948c0,0,3.85,14.438,10.467,20.789c0,0,5.188,4.481,9.664-5.636
							l7.223-9.229C167.938,243.873,156.142,253.873,140.584,237.948z"/>
					</g>
					<g>
						<g>
							<path style="fill:#FEC55C;" d="M142.447,233.45c2.379,0,4.309-2.291,4.309-2.291s-1.93-2.289-4.309-2.289
								c-2.379,0-4.307,1.024-4.307,2.289C138.141,232.424,140.068,233.45,142.447,233.45z"/>
							<path style="fill:#D1D3D4;" d="M144.355,230.631h-0.053c-1.686,0-3.153,1.087-3.739,2.584
								c-1.434-0.372-2.422-1.15-2.422-2.057c0-1.265,1.928-2.289,4.307-2.289c2.379,0,4.309,2.289,4.309,2.289
								s-0.057,0.068-0.155,0.173C145.955,230.891,145.182,230.631,144.355,230.631z"/>
							<path style="fill:#FFFFFF;" d="M143.564,232.919c0.725-0.172,1.241-0.611,1.156-0.978c-0.089-0.366-0.75-0.524-1.475-0.35
								c-0.729,0.175-1.245,0.611-1.158,0.979C142.178,232.939,142.836,233.093,143.564,232.919z"/>
						</g>
						<g>
							<path style="fill:#FEC55C;" d="M150.539,208.585c1.683,1.684,4.664,1.429,4.664,1.429s0.256-2.982-1.426-4.667
								c-1.682-1.681-3.77-2.318-4.665-1.426C148.217,204.816,148.857,206.904,150.539,208.585z"/>
							<path style="fill:#D1D3D4;" d="M153.883,207.943l-0.038-0.039c-1.192-1.191-2.999-1.462-4.476-0.817
								c-0.748-1.275-0.896-2.525-0.257-3.166c0.895-0.893,2.983-0.255,4.665,1.426c1.682,1.685,1.426,4.667,1.426,4.667
								s-0.085,0.006-0.231,0.011C154.828,209.255,154.464,208.527,153.883,207.943z"/>
							<path style="fill:#FFFFFF;" d="M151.699,209.001c0.638,0.392,1.314,0.446,1.514,0.125c0.198-0.322-0.158-0.898-0.797-1.291
								c-0.635-0.391-1.311-0.447-1.507-0.125C150.708,208.034,151.067,208.61,151.699,209.001z"/>
						</g>
						<g>
							<path style="fill:#FEC55C;" d="M143.419,221.142c2.235,0.815,4.834-0.677,4.834-0.677s-1.031-2.811-3.266-3.626
								c-2.233-0.816-4.399-0.512-4.832,0.675C139.724,218.704,141.184,220.327,143.419,221.142z"/>
							<path style="fill:#D1D3D4;" d="M146.179,219.148l-0.053-0.018c-1.585-0.578-3.332-0.062-4.398,1.146
								c-1.219-0.841-1.882-1.911-1.573-2.763c0.433-1.187,2.599-1.491,4.832-0.675c2.234,0.814,3.266,3.626,3.266,3.626
								s-0.08,0.043-0.208,0.11C147.592,219.941,146.953,219.43,146.179,219.148z"/>
							<path style="fill:#FFFFFF;" d="M144.65,221.028c0.74,0.086,1.377-0.148,1.42-0.525c0.045-0.373-0.526-0.749-1.266-0.834
								c-0.743-0.087-1.379,0.15-1.423,0.525C143.341,220.569,143.908,220.942,144.65,221.028z"/>
						</g>
						<g>
							<path style="fill:#FEC55C;" d="M147.087,246.828c2.202-0.895,3.128-3.742,3.128-3.742s-2.648-1.398-4.854-0.5
								c-2.204,0.896-3.603,2.572-3.13,3.744C142.708,247.503,144.882,247.723,147.087,246.828z"/>
							<path style="fill:#D1D3D4;" d="M147.793,243.5l-0.05,0.02c-1.563,0.636-2.518,2.193-2.495,3.804
								c-1.465,0.193-2.675-0.156-3.018-0.993c-0.473-1.172,0.926-2.849,3.13-3.744c2.206-0.898,4.854,0.5,4.854,0.5
								s-0.027,0.083-0.079,0.218C149.371,243.137,148.558,243.187,147.793,243.5z"/>
							<path style="fill:#FFFFFF;" d="M147.922,245.919c0.605-0.436,0.92-1.036,0.701-1.345c-0.219-0.308-0.889-0.203-1.498,0.231
								c-0.607,0.434-0.923,1.035-0.699,1.342C146.643,246.457,147.311,246.353,147.922,245.919z"/>
						</g>
						<g>
							<path style="fill:#FEC55C;" d="M155.049,256.525c1.57-1.792,1.116-4.751,1.116-4.751s-2.992-0.057-4.559,1.736
								c-1.569,1.79-2.065,3.917-1.113,4.749C151.448,259.092,153.487,258.317,155.049,256.525z"/>
							<path style="fill:#D1D3D4;" d="M154.186,253.234l-0.033,0.04c-1.111,1.27-1.26,3.089-0.517,4.519
								c-1.226,0.832-2.461,1.063-3.143,0.467c-0.952-0.832-0.456-2.959,1.113-4.749c1.566-1.793,4.559-1.736,4.559-1.736
								s0.013,0.087,0.026,0.231C155.436,252.201,154.731,252.613,154.186,253.234z"/>
							<path style="fill:#FFFFFF;" d="M155.39,255.337c0.345-0.662,0.356-1.341,0.025-1.516c-0.335-0.176-0.892,0.217-1.238,0.88
								c-0.347,0.659-0.355,1.339-0.022,1.515C154.487,256.392,155.042,255.999,155.39,255.337z"/>
						</g>
					</g>
				</g>
				<g>
					<g>
						<path style="fill:#FFF9B2;" d="M213.601,228.317c0,6.291-5.1,11.392-11.393,11.392c-6.29,0-11.392-5.1-11.392-11.392
							c0-6.292,5.102-11.392,11.392-11.392C208.501,216.925,213.601,222.025,213.601,228.317z"/>
						<g>
							<path style="fill:#FFF9B2;" d="M198.311,224.326l-13.677-30.212c0,0-6.841-9.689,6.838-13.679c0,0,17.1-6.271,34.202,4.559
								c0,0,6.841,3.421,0,11.972l-19.857,27.36H198.311z"/>
							<path style="fill:#FFF9B2;" d="M205.865,224.753l30.211-13.679c0,0,9.693-6.842,13.683,6.838c0,0,6.271,17.102-4.562,34.202
								c0,0-3.422,6.841-11.972,0l-27.36-19.856V224.753z"/>
							<path style="fill:#FFF9B2;" d="M198.551,224.753l-30.211-13.679c0,0-9.688-6.842-13.676,6.838c0,0-6.274,17.102,4.558,34.202
								c0,0,3.418,6.841,11.969,0l27.36-19.856V224.753z"/>
							<path style="fill:#FFF9B2;" d="M198.359,232.306l-13.68,30.211c0,0-6.837,9.69,6.84,13.68c0,0,17.101,6.27,34.201-4.56
								c0,0,6.842-3.421,0-11.969l-19.855-27.362H198.359z"/>
						</g>
					</g>
					<path style="fill:#D1D3D4;" d="M249.759,217.913c-3.989-13.68-13.683-6.838-13.683-6.838l-19.531,8.846
						c-6.89,5.468-16.476,1.376-19.386-6.564c-3.595-9.813-2.732-22.125,4.285-30.201c1.538-1.772,3.347-3.192,5.286-4.406
						c-8.869-0.648-15.258,1.686-15.258,1.686c-13.679,3.989-6.838,13.679-6.838,13.679l11.207,24.754
						c-0.153,0.107-0.299,0.229-0.451,0.34c0.135,0.728,0.214,1.48,0.214,2.26c0,3.755-1.898,7.407-4.796,9.757
						c-5.829,7.074-18.456,8.953-26.813,6.336c-4.762-1.491-8.629-4.013-11.139-7.637c-0.018,6.241,1.311,14.215,6.364,22.191
						c0,0,3.418,6.841,11.969,0l22.46-16.298c0.655,0.747,1.401,1.414,2.232,1.969l-11.203,24.731c0,0-6.837,9.69,6.84,13.68
						c0,0,13.729,5.021,28.876-1.714c-15.339-6.408-30.45-18.751-24.259-35.909c0.317-3.377,2.034-6.668,5.688-9.002
						c8.317-5.309,21.44-6.157,31.396-5.23c3.064-0.039,6.108,0.286,9.112,1.391c1.468,0.54,3.053,1.187,4.644,1.946
						c1.588,0.688,3.114,1.49,4.58,2.388C251.56,222.851,249.759,217.913,249.759,217.913z"/>
					<path style="fill:#FFFFFF;" d="M181.252,224.591c0,4.234-5.175,7.668-11.559,7.668c-6.386,0-11.559-3.434-11.559-7.668
						c0-4.235,5.174-7.666,11.559-7.666C176.077,216.925,181.252,220.356,181.252,224.591z"/>
					<path style="fill:#FFFFFF;" d="M213.895,185.986c4.061,1.2,5.883,7.137,4.072,13.256c-1.809,6.124-6.566,10.113-10.625,8.913
						c-4.063-1.201-5.89-7.138-4.081-13.26C205.075,188.772,209.833,184.783,213.895,185.986z"/>
					<path style="fill:#FFFFFF;" d="M246.494,240.658c-1.201,4.061-7.137,5.884-13.258,4.073c-6.122-1.81-10.113-6.567-8.91-10.63
						c1.2-4.06,7.138-5.884,13.258-4.074C243.707,231.837,247.694,236.597,246.494,240.658z"/>
					<path style="fill:#FFFFFF;" d="M219.965,261.952c-2.488,3.423-8.693,3.157-13.857-0.596c-5.164-3.754-7.331-9.573-4.839-12.998
						c2.485-3.424,8.692-3.161,13.857,0.595C220.287,252.707,222.457,258.525,219.965,261.952z"/>
				</g>
			</g>
		</g>
		<g>
			<g>
				<polygon style="fill:#85B340;" points="332.174,160.318 326.301,159.379 337.424,67.199 350.345,69.264 				"/>
				<polygon style="fill:#A0CC3A;" points="336.209,161.124 330.501,159.455 356.939,56.337 369.496,60.01 				"/>
				<polygon style="fill:#6C8F26;" points="328.545,163.856 322.6,163.813 319.703,71.01 332.788,71.106 				"/>
				<polygon style="fill:#85B340;" points="333.81,159.821 338.964,162.79 388.366,84.175 377.033,77.646 				"/>
				<polygon style="fill:#6C8F26;" points="330.171,157.907 335.535,160.358 371.695,74.471 359.887,69.075 				"/>
				<polygon style="fill:#6C8F26;" points="334.403,164.855 339.049,168.568 399.734,98.296 389.512,90.129 				"/>
			</g>
			<path style="fill:#F27F2D;" d="M349.626,159.034l-15.733-6.89l-15.733-6.889c0,0-48.963-16.255-58.043,28.192l-26.901,165.776
				c0,0-1.256,17.896,8.954,22.369c10.21,4.47,22.511-8.59,22.511-8.59l103.59-132.192
				C394.776,183.996,349.626,159.034,349.626,159.034z"/>
			<path style="fill:#D1D3D4;" d="M351.854,160.397c-0.316,0.004-0.634,0.003-0.949-0.006c-1.595-0.032-3.26-0.254-4.846-0.044
				c-2.166,0.286-1.208,2.104-0.471,3.546c2.142,4.172,7.473,7.388,10.834,10.508c3.277,3.044,8.767,7.496,9.06,12.396
				c0.34,5.684-5.921,7.086-10.335,7.89c-6.368,1.157-12.748-3.91-19.19-3.101c-4.973,0.622,3.795,5.138,5.128,5.75
				c2.845,1.304,5.964,2.402,8.544,4.21c3.373,2.361,4.852,8.538,2.307,12.018c-2.764,3.788-8.289,4.519-12.617,4.906
				c-5.703,0.514-11.603,0.138-17.239,1.219c-1.644,0.313-5.264,1.087-4.02,3.704c1.577,3.318,6.94,4.24,9.965,5.742
				c6.543,3.251,8.573,9.753,3.261,15.477c-2.869,3.091-7.25,5.028-11.146,6.432c-3.252,1.177-7.546,1.462-10.533,3.074
				c-2.643,1.421-2.589,4.499-0.134,5.898c0.519,0.295,0.979,0.623,1.431,1.008c1.047,0.878,1.399,2.509,1.7,3.738
				c0.786,3.268,1.077,7.003-1.683,9.467c-7.735,6.905-25.085,5.436-21.597,20.141c0.922,3.9,2.924,7.484,3.155,11.54
				c0.213,3.807-1.977,7.029-4.456,9.678c-2.89,3.086-6.803,4.235-10.572,5.813c-5.117,2.143-8.504,6.043-9.7,11.535
				c-1.117,5.117-0.406,9.872,1.501,14.236l99.018-126.36C391.163,189.018,360.613,166.067,351.854,160.397z"/>
			<path style="fill:#D1D3D4;" d="M246.444,324.282c2.462-3.7,5.491-7.009,9.78-8.516c3.945-1.388,8.094-1.781,12.097-2.918
				c3.147-0.892,11.159-4.733,7.847-9.285c-1.938-2.668-5.325-3.905-8.122-5.446c-5.345-2.955-11.351-8.608-8.577-15.529
				c2.846-7.102,12.204-8.156,18.777-9.199c1.481-0.234,13.241-3.007,12.601-3.736c-2.119-2.409-5.624-3.774-8.32-5.412
				c-4.182-2.541-14.963-8.801-11.363-15.182c3.185-5.644,13.965-4.161,19.144-3.848c10.742,0.651,21.188,1.802,30.916-2.884
				c-7.091-1.977-14.063-4.497-20.675-7.698c-7.483-3.624-15.442-8.027-20.744-14.61c-2.62-3.255-7.422-10.489-0.193-11.559
				c8.282-1.225,17.036,0.054,25.03-2.575c-6.162-2.775-12.306-5.848-17.66-9.939c-4.219-3.221-11.258-9.655-7.832-15.737
				c6.402-11.375,29.814,2.766,34.659-10.522c-4.93-2.021-10.288-2.601-15.447-3.846c-2.704-0.652-7.421-1.543-7.643-5.066
				c-0.289-4.616,7.904-8.623,11.004-10.247c4.369-2.289,8.91-4.2,13.456-6.104c-10.757-2.669-47.338-8.786-55.06,29.026
				l-26.901,165.776c0,0-1.256,17.896,8.954,22.369c3.922,1.718,8.149,0.844,11.872-0.877
				C244.35,351.054,238.146,336.754,246.444,324.282z"/>
			<path style="fill:#FFFFFF;" d="M310.074,156.485c4.549,4.959,26.381,6.988,11.747,14.574c-3.247,1.684-10.782,3.75-4.856,8.083
				c3.103,2.268,12.16,1.165,16.049,1.872c5.073,0.922,9.182,2.887,14.121,4.851c5.683,2.258,10.604,1.133,4.757-4.931
				c-3.591-3.726-10.046-4.244-14.116-7.467c-6.461-5.12-3.672-6.283,0.353-10.393c4.256-4.35,3.354-4.662-2.388-7.523
				c-4.012-1.999-9.601-5.303-14.101-4.875C321.64,150.676,305.478,151.548,310.074,156.485z"/>
			<path style="fill:#FFFFFF;" d="M317.931,190.7c2.171,4.157-1.265,7.42,5.499,9.626c3.531,1.151,13.742,1.142,14.792,6.334
				c0.863,4.287-8.45,5.761-11.501,6.187c-3.728,0.521-7.683-0.566-11.181,0.203c-4.787,1.056-5.208,4.83-8.462,6.909
				c-5.12,3.275-19.169-3.162-12.892-9.564c3.692-3.766,11.552,0.574,16.449-1.075c5.147-1.729,5.564-6.379,1.447-9.968
				c-2.46-2.146-15.196-5.124-13.749-9.539c1.215-3.715,8.886-4.459,11.557-3.101C309.891,186.712,316.858,188.65,317.931,190.7z"/>
			<path style="fill:#FFFFFF;" d="M305.374,251.84c-3.217-0.735-6.583-0.008-9.824-0.308c-3.56-0.328-18.452-2.085-14.159,4.508
				c3.622,5.564,15.507,5.069,17.242,12.884c1.6,7.198-7.614,5.499-10.33,8.455c4.786,2.954,12.389,1.234,16.635-2.249
				c6.227-5.11,1.059-7.817-3.16-11.768c-4.92-4.608-3.306-7.1,2.916-8.801C304.693,254.561,309.902,252.872,305.374,251.84z"/>
			<path style="fill:#FFFFFF;" d="M280.732,283.389c-3.926,0.868-8.173,4.703-6.228,8.605c1.708,3.424,6.315,3.911,7.633,8.177
				c0.876,2.841,0.508,7.603-1.072,10.255c-1.958,3.294-5.473,3.104-8.194,5.492c6.136,1.864,16.126-7.304,16.191-13.406
				c0.047-4.445-2.948-5.968-5.816-8.175c-4.27-3.285-3.15-4.508-1.323-9.38C281.922,284.957,283.35,282.812,280.732,283.389z"/>
			<path style="fill:#FFFFFF;" d="M267.827,320.945c0.019,3.481-4.781,4.279-6.538,6.52c-5.356,6.826,4.117,10.998,2.227,17.533
				c-2.753,9.533-13.568-2.77-14.091-7.631c-1.002-9.343,6.184-14.913,13.521-18.914
				C262.946,318.453,267.809,317.396,267.827,320.945z"/>
		</g>
	</g>
	<g>
		<g>
			<path style="fill:#993964;" d="M92.288,320.677c-33.644,0-60.917-27.273-60.917-60.915c0-33.646,27.273-60.923,60.917-60.923
				c33.647,0,60.921,27.277,60.921,60.923C153.209,293.404,125.936,320.677,92.288,320.677z"/>
			<path style="fill:#975D77;" d="M92.288,318.419c-32.399,0-58.661-26.266-58.661-58.657c0-32.4,26.262-58.662,58.661-58.662
				s58.657,26.262,58.657,58.662C150.945,292.154,124.688,318.419,92.288,318.419z"/>
			<path style="fill:#C3E3C6;" d="M92.288,313.561c-29.712,0-53.802-24.086-53.802-53.799c0-29.718,24.09-53.804,53.802-53.804
				c29.716,0,53.8,24.086,53.8,53.804C146.088,289.475,122.004,313.561,92.288,313.561z"/>
		</g>
		<g>
			<path style="fill:#993964;" d="M92.288,308.421c-26.874,0-48.662-21.788-48.662-48.659c0-26.876,21.788-48.663,48.662-48.663
				c26.876,0,48.659,21.787,48.659,48.663C140.947,286.633,119.164,308.421,92.288,308.421z"/>
			<path style="fill:#975D77;" d="M92.288,306.615c-25.878,0-46.856-20.975-46.856-46.853c0-25.879,20.978-46.861,46.856-46.861
				c25.878,0,46.858,20.982,46.858,46.861C139.146,285.64,118.166,306.615,92.288,306.615z"/>
			<path style="fill:#C3E3C6;" d="M92.288,302.736c-23.733,0-42.974-19.24-42.974-42.974c0-23.737,19.24-42.978,42.974-42.978
				c23.738,0,42.974,19.24,42.974,42.978C135.262,283.496,116.026,302.736,92.288,302.736z"/>
		</g>
		<g>
			<path style="fill:#993964;" d="M92.288,296.621c-20.356,0-36.861-16.505-36.861-36.858c0-20.358,16.505-36.858,36.861-36.858
				c20.36,0,36.86,16.5,36.86,36.858C129.148,280.116,112.648,296.621,92.288,296.621z"/>
			<path style="fill:#975D77;" d="M92.288,295.254c-19.605,0-35.493-15.891-35.493-35.492c0-19.602,15.888-35.497,35.493-35.497
				c19.602,0,35.493,15.896,35.493,35.497C127.781,279.364,111.89,295.254,92.288,295.254z"/>
			<path style="fill:#C3E3C6;" d="M92.288,292.312c-17.979,0-32.553-14.574-32.553-32.55c0-17.98,14.573-32.555,32.553-32.555
				s32.551,14.574,32.551,32.555C124.839,277.738,110.268,292.312,92.288,292.312z"/>
		</g>
		<g>
			<path style="fill:#993964;" d="M92.288,286.66c-14.856,0-26.901-12.041-26.901-26.901c0-14.856,12.045-26.898,26.901-26.898
				c14.855,0,26.901,12.042,26.901,26.898C119.189,274.619,107.144,286.66,92.288,286.66z"/>
			<path style="fill:#975D77;" d="M92.288,285.663c-14.312,0-25.903-11.598-25.903-25.9c0-14.308,11.592-25.909,25.903-25.909
				c14.308,0,25.903,11.602,25.903,25.909C118.191,274.065,106.596,285.663,92.288,285.663z"/>
			<path style="fill:#C3E3C6;" d="M92.288,283.521c-13.124,0-23.759-10.638-23.759-23.759c0-13.122,10.635-23.764,23.759-23.764
				c13.124,0,23.761,10.642,23.761,23.764C116.049,272.883,105.412,283.521,92.288,283.521z"/>
		</g>
		<g>
			<path style="fill:#993964;" d="M92.288,279.137c-10.7,0-19.378-8.677-19.378-19.379c0-10.698,8.678-19.376,19.378-19.376
				c10.702,0,19.382,8.678,19.382,19.376C111.67,270.461,102.99,279.137,92.288,279.137z"/>
			<path style="fill:#975D77;" d="M92.288,278.418c-10.306,0-18.657-8.353-18.657-18.656c0-10.308,8.352-18.661,18.657-18.661
				c10.309,0,18.657,8.354,18.657,18.661C110.945,270.065,102.597,278.418,92.288,278.418z"/>
			<path style="fill:#C3E3C6;" d="M92.288,276.872c-9.452,0-17.112-7.661-17.112-17.109c0-9.453,7.66-17.114,17.112-17.114
				c9.452,0,17.115,7.661,17.115,17.114C109.403,269.211,101.74,276.872,92.288,276.872z"/>
		</g>
		<g>
			<path style="fill:#993964;" d="M92.288,273.474c-7.574,0-13.716-6.141-13.716-13.716c0-7.575,6.142-13.717,13.716-13.717
				c7.575,0,13.718,6.142,13.718,13.717C106.006,267.333,99.863,273.474,92.288,273.474z"/>
			<path style="fill:#975D77;" d="M92.288,272.966c-7.291,0-13.206-5.912-13.206-13.204c0-7.297,5.915-13.208,13.206-13.208
				c7.296,0,13.206,5.911,13.206,13.208C105.494,267.054,99.584,272.966,92.288,272.966z"/>
			<path style="fill:#C3E3C6;" d="M92.288,271.871c-6.689,0-12.113-5.422-12.113-12.108c0-6.691,5.424-12.118,12.113-12.118
				c6.692,0,12.114,5.428,12.114,12.118C104.402,266.449,98.98,271.871,92.288,271.871z"/>
		</g>
		<g>
			<path style="fill:#993964;" d="M92.288,266.904c-3.946,0-7.146-3.198-7.146-7.146c0-3.944,3.199-7.143,7.146-7.143
				c3.948,0,7.142,3.198,7.142,7.143C99.43,263.706,96.236,266.904,92.288,266.904z"/>
			<path style="fill:#975D77;" d="M92.288,266.64c-3.801,0-6.883-3.082-6.883-6.878c0-3.801,3.082-6.883,6.883-6.883
				c3.8,0,6.88,3.082,6.88,6.883C99.168,263.558,96.088,266.64,92.288,266.64z"/>
			<path style="fill:#C3E3C6;" d="M92.288,266.069c-3.484,0-6.31-2.822-6.31-6.307c0-3.488,2.825-6.311,6.31-6.311
				c3.484,0,6.307,2.822,6.307,6.311C98.595,263.247,95.772,266.069,92.288,266.069z"/>
		</g>
	</g>
	<g>
		<path style="fill:#64AF53;" d="M124.839,376.926c-33.645,0-60.915-27.273-60.915-60.919c0-33.641,27.27-60.915,60.915-60.915
			c33.645,0,60.92,27.274,60.92,60.915C185.759,349.653,158.483,376.926,124.839,376.926z"/>
		<path style="fill:#95CA57;" d="M124.839,369.747c-29.679,0-53.735-24.061-53.735-53.739c0-29.675,24.057-53.732,53.735-53.732
			c29.678,0,53.735,24.058,53.735,53.732C178.574,345.686,154.517,369.747,124.839,369.747z"/>
		<path style="fill:#C6E1A6;" d="M124.839,364.867c-26.98,0-48.856-21.874-48.856-48.859c0-26.98,21.876-48.854,48.856-48.854
			c26.984,0,48.854,21.874,48.854,48.854C173.693,342.993,151.823,364.867,124.839,364.867z"/>
		<g>
			<path style="fill:#83C559;" d="M124.839,362.654c-25.757,0-46.644-20.885-46.644-46.647c0-25.758,20.887-46.643,46.644-46.643
				c25.764,0,46.646,20.885,46.646,46.643C171.484,341.769,150.602,362.654,124.839,362.654z"/>
			<path style="fill:#A2CE55;" d="M124.839,357.157c-22.727,0-41.146-18.425-41.146-41.149c0-22.721,18.419-41.145,41.146-41.145
				c22.726,0,41.147,18.424,41.147,41.145C165.986,338.732,147.564,357.157,124.839,357.157z"/>
			<path style="fill:#C6E1A6;" d="M124.839,353.416c-20.659,0-37.409-16.745-37.409-37.408c0-20.659,16.75-37.404,37.409-37.404
				c20.661,0,37.409,16.745,37.409,37.404C162.248,336.671,145.5,353.416,124.839,353.416z"/>
		</g>
		<g>
			<path style="fill:#83C559;" d="M124.839,350.71c-19.166,0-34.702-15.533-34.702-34.702c0-19.164,15.536-34.702,34.702-34.702
				c19.165,0,34.701,15.538,34.701,34.702C159.54,335.176,144.004,350.71,124.839,350.71z"/>
			<path style="fill:#A2CE55;" d="M124.839,346.62c-16.903,0-30.607-13.705-30.607-30.612c0-16.903,13.704-30.608,30.607-30.608
				c16.905,0,30.612,13.705,30.612,30.608C155.451,332.915,141.744,346.62,124.839,346.62z"/>
			<path style="fill:#C6E1A6;" d="M124.839,343.839c-15.368,0-27.827-12.46-27.827-27.832c0-15.368,12.459-27.827,27.827-27.827
				c15.374,0,27.833,12.459,27.833,27.827C152.672,331.379,140.213,343.839,124.839,343.839z"/>
		</g>
		<g>
			<path style="fill:#83C559;" d="M124.839,340.614c-13.589,0-24.61-11.018-24.61-24.609c0-13.593,11.021-24.611,24.61-24.611
				c13.592,0,24.611,11.019,24.611,24.611C149.45,329.596,138.431,340.614,124.839,340.614z"/>
			<path style="fill:#A2CE55;" d="M124.839,337.713c-11.984,0-21.706-9.721-21.706-21.709c0-11.989,9.722-21.709,21.706-21.709
				c11.992,0,21.708,9.72,21.708,21.709C146.547,327.993,136.831,337.713,124.839,337.713z"/>
			<path style="fill:#C6E1A6;" d="M124.839,335.741c-10.901,0-19.737-8.836-19.737-19.736c0-10.901,8.836-19.737,19.737-19.737
				c10.901,0,19.735,8.836,19.735,19.737C144.574,326.905,135.74,335.741,124.839,335.741z"/>
		</g>
		<g>
			<path style="fill:#83C559;" d="M124.839,332.467c-9.087,0-16.458-7.372-16.458-16.463c0-9.093,7.371-16.46,16.458-16.46
				c9.091,0,16.464,7.367,16.464,16.46C141.303,325.095,133.93,332.467,124.839,332.467z"/>
			<path style="fill:#A2CE55;" d="M124.839,330.522c-8.017,0-14.518-6.499-14.518-14.518c0-8.02,6.501-14.518,14.518-14.518
				c8.019,0,14.521,6.499,14.521,14.518C139.359,324.023,132.857,330.522,124.839,330.522z"/>
			<path style="fill:#C6E1A6;" d="M124.839,329.205c-7.288,0-13.2-5.908-13.2-13.2c0-7.293,5.912-13.201,13.2-13.201
				c7.294,0,13.2,5.908,13.2,13.201C138.039,323.296,132.133,329.205,124.839,329.205z"/>
		</g>
		<path style="fill:#64AF53;" d="M125.708,318.066c3.981-0.772-0.531-3.349,1.399-5.283c1.292-1.291,1.938-0.644,3.227,0
			c2.576,2.577,1.289,5.155,0,7.09c-1.935,2.581-5.8,2.581-8.381,0.643c-4.512-3.221-5.799-9.667-1.286-13.535
			c0,2.581-1.294,4.512-0.382,7.387C121.102,317.016,123.51,318.675,125.708,318.066z"/>
	</g>
</g>
</svg>
